<svg width="81" height="46" viewBox="0 0 81 46" fill="none" xmlns="http://www.w3.org/2000/svg">
<path d="M21.4547 25.7271C15.6467 24.2297 12.3016 24.6749 6.31801 25.7271C12.6496 27.4745 16.1679 28.4718 20.7924 31.1707C26.5401 35.0326 31.7512 37.5358 37.5374 39.0547C38.2152 41.8878 40.2124 42.2828 41.7946 42.3396L42.2676 46C43.2968 45.7582 43.7303 45.4935 44.4435 44.9676C45.6258 45.4269 46.4628 45.6403 48.0384 46C47.2656 43.9331 46.6794 42.8404 45.1057 41.1195C45.4888 40.5408 45.648 40.1143 45.7679 39.0547C50.5463 37.9433 53.2282 40.3531 60.6208 36.9898C68.2912 34.6611 72.7521 34.1662 80.8661 34.0803C72.7371 32.8067 68.1462 32.2143 59.7694 31.8277C53.9715 32.5959 50.4552 33.4659 43.2136 35.0188C42.5854 34.2056 42.151 33.7604 40.7539 33.0479C39.5597 32.7147 38.9479 32.854 38.1996 35.0188C32.3816 31.0638 28.8149 28.9844 21.4547 25.7271Z" fill="#3172BA"/>
<path d="M37.6962 17.1608C34.5895 17.1781 32.9782 17.8522 30.1308 19.1879C33.5331 19.2275 35.4273 19.2628 38.106 20.0142C41.5043 21.2059 44.4495 21.7794 47.5482 21.7759C48.2725 23.124 49.3245 23.0572 50.123 22.8742L50.8575 24.6699C51.339 24.4092 51.5197 24.2168 51.8046 23.8541C52.458 23.9291 52.9054 23.9254 53.7419 23.897C53.0743 22.9507 52.6326 22.4743 51.6119 21.811C51.7246 21.4658 51.7461 21.2279 51.6619 20.6736C53.8989 19.4692 55.5673 20.334 58.8044 17.6358C62.3212 15.4258 64.4835 14.577 68.5272 13.4467C64.291 13.8885 61.9158 14.2025 57.6764 15.128C54.8831 16.2946 53.244 17.2074 49.836 18.9659C49.4113 18.6371 49.1336 18.4691 48.3384 18.2943C47.6961 18.2851 47.4093 18.4377 47.3299 19.6374C43.8838 18.4079 41.8181 17.8294 37.6962 17.1608Z" fill="#3172BA"/>
<path d="M6.4821 7.11539C3.86467 7.12512 2.50818 7.69421 0.111228 8.82246C2.97791 8.86144 4.57389 8.89444 6.83196 9.53595C9.69701 10.552 12.1794 11.043 14.7901 11.045C15.4025 12.1894 16.2887 12.1345 16.9612 11.9805L17.583 13.5046C17.9882 13.2843 18.1401 13.1213 18.3796 12.8143C18.9302 12.8788 19.3071 12.8764 20.0119 12.8537C19.4479 12.0502 19.075 11.6454 18.214 11.0813C18.3084 10.7887 18.3261 10.5869 18.2543 10.1168C20.1371 9.09895 21.5442 9.83496 24.2673 7.55189C27.2267 5.6833 29.0471 4.96693 32.4523 4.01485C28.8839 4.38277 26.8832 4.64526 23.3128 5.42337C20.9613 6.40827 19.5817 7.17975 16.7132 8.66565C16.3548 8.38605 16.1206 8.24318 15.4503 8.09368C14.9092 8.08481 14.6678 8.21383 14.6028 9.23112C11.6974 8.18288 9.95607 7.68902 6.4821 7.11539Z" fill="#3172BA"/>
</svg>
