<svg width="340" height="208" viewBox="0 0 340 208" fill="none" xmlns="http://www.w3.org/2000/svg">
<mask id="mask0_13_954" style="mask-type:alpha" maskUnits="userSpaceOnUse" x="0" y="0" width="340" height="208">
<rect width="340" height="208" fill="#D9D9D9"/>
</mask>
<g mask="url(#mask0_13_954)">
<path d="M-48.952 6.27676L-17.6342 237.049C-17.6342 237.049 106.334 362.906 213.377 298.522C320.421 234.139 251.69 129.059 193.903 143.114C136.116 157.168 121.384 163.897 101.622 140.291C81.8599 116.685 97.7258 76.2031 72.2293 33.2478C46.7328 -9.70746 -15.9655 5.51026 -48.952 6.27676Z" fill="#3172BA" fill-opacity="0.42"/>
<path d="M-29.9723 89.9638L2.38694 223.64C2.38694 223.64 145.24 296.137 271.834 258.4C398.429 220.664 319.889 160.003 251.936 168.372C183.982 176.741 166.6 180.699 143.894 167.088C121.187 153.477 140.531 129.946 111.47 105.139C82.4095 80.3315 8.68146 89.3935 -29.9723 89.9638Z" fill="#3172BA" fill-opacity="0.67"/>
</g>
</svg>
