<svg width="390" height="844" viewBox="0 0 390 844" fill="none" xmlns="http://www.w3.org/2000/svg">
<g clip-path="url(#clip0_13_30)">
<rect width="390" height="844" fill="white"/>
<path d="M174.278 597V585.364H181.494V586.875H176.034V590.42H180.977V591.926H176.034V597H174.278ZM186.553 597.176C185.734 597.176 185.02 596.989 184.411 596.614C183.801 596.239 183.327 595.714 182.99 595.04C182.653 594.366 182.484 593.578 182.484 592.676C182.484 591.771 182.653 590.979 182.99 590.301C183.327 589.623 183.801 589.097 184.411 588.722C185.02 588.347 185.734 588.159 186.553 588.159C187.371 588.159 188.085 588.347 188.695 588.722C189.304 589.097 189.778 589.623 190.115 590.301C190.452 590.979 190.621 591.771 190.621 592.676C190.621 593.578 190.452 594.366 190.115 595.04C189.778 595.714 189.304 596.239 188.695 596.614C188.085 596.989 187.371 597.176 186.553 597.176ZM186.558 595.75C187.089 595.75 187.528 595.61 187.876 595.33C188.225 595.049 188.482 594.676 188.649 594.21C188.82 593.744 188.905 593.231 188.905 592.67C188.905 592.114 188.82 591.602 188.649 591.136C188.482 590.667 188.225 590.29 187.876 590.006C187.528 589.722 187.089 589.58 186.558 589.58C186.024 589.58 185.581 589.722 185.229 590.006C184.88 590.29 184.621 590.667 184.45 591.136C184.284 591.602 184.2 592.114 184.2 592.67C184.2 593.231 184.284 593.744 184.45 594.21C184.621 594.676 184.88 595.049 185.229 595.33C185.581 595.61 186.024 595.75 186.558 595.75ZM192.517 597V588.273H194.159V589.659H194.25C194.409 589.189 194.689 588.82 195.091 588.551C195.496 588.278 195.955 588.142 196.466 588.142C196.572 588.142 196.697 588.146 196.841 588.153C196.989 588.161 197.104 588.17 197.188 588.182V589.807C197.119 589.788 196.998 589.767 196.824 589.744C196.65 589.718 196.475 589.705 196.301 589.705C195.9 589.705 195.542 589.79 195.227 589.96C194.917 590.127 194.67 590.36 194.489 590.659C194.307 590.955 194.216 591.292 194.216 591.67V597H192.517ZM202.004 600.455C201.311 600.455 200.714 600.364 200.214 600.182C199.718 600 199.313 599.759 198.999 599.46C198.684 599.161 198.449 598.833 198.294 598.477L199.754 597.875C199.857 598.042 199.993 598.218 200.163 598.403C200.338 598.593 200.572 598.754 200.868 598.886C201.167 599.019 201.552 599.085 202.021 599.085C202.665 599.085 203.197 598.928 203.618 598.614C204.038 598.303 204.249 597.807 204.249 597.125V595.409H204.141C204.038 595.595 203.891 595.801 203.697 596.028C203.508 596.256 203.247 596.453 202.913 596.619C202.58 596.786 202.146 596.869 201.612 596.869C200.923 596.869 200.302 596.708 199.749 596.386C199.199 596.061 198.764 595.581 198.442 594.949C198.124 594.312 197.964 593.53 197.964 592.602C197.964 591.674 198.122 590.879 198.436 590.216C198.754 589.553 199.19 589.045 199.743 588.693C200.296 588.337 200.923 588.159 201.624 588.159C202.165 588.159 202.603 588.25 202.936 588.432C203.269 588.61 203.529 588.818 203.714 589.057C203.904 589.295 204.05 589.506 204.152 589.688H204.277V588.273H205.942V597.193C205.942 597.943 205.768 598.559 205.419 599.04C205.071 599.521 204.599 599.877 204.004 600.108C203.413 600.339 202.747 600.455 202.004 600.455ZM201.987 595.46C202.476 595.46 202.889 595.347 203.226 595.119C203.567 594.888 203.824 594.559 203.999 594.131C204.177 593.699 204.266 593.182 204.266 592.58C204.266 591.992 204.179 591.475 204.004 591.028C203.83 590.581 203.574 590.233 203.237 589.983C202.9 589.729 202.483 589.602 201.987 589.602C201.476 589.602 201.05 589.735 200.709 590C200.368 590.261 200.11 590.617 199.936 591.068C199.766 591.519 199.68 592.023 199.68 592.58C199.68 593.152 199.768 593.653 199.942 594.085C200.116 594.517 200.374 594.854 200.714 595.097C201.059 595.339 201.483 595.46 201.987 595.46ZM211.896 597.176C211.078 597.176 210.364 596.989 209.754 596.614C209.144 596.239 208.671 595.714 208.334 595.04C207.997 594.366 207.828 593.578 207.828 592.676C207.828 591.771 207.997 590.979 208.334 590.301C208.671 589.623 209.144 589.097 209.754 588.722C210.364 588.347 211.078 588.159 211.896 588.159C212.714 588.159 213.429 588.347 214.038 588.722C214.648 589.097 215.122 589.623 215.459 590.301C215.796 590.979 215.964 591.771 215.964 592.676C215.964 593.578 215.796 594.366 215.459 595.04C215.122 595.714 214.648 596.239 214.038 596.614C213.429 596.989 212.714 597.176 211.896 597.176ZM211.902 595.75C212.432 595.75 212.872 595.61 213.22 595.33C213.569 595.049 213.826 594.676 213.993 594.21C214.163 593.744 214.249 593.231 214.249 592.67C214.249 592.114 214.163 591.602 213.993 591.136C213.826 590.667 213.569 590.29 213.22 590.006C212.872 589.722 212.432 589.58 211.902 589.58C211.368 589.58 210.925 589.722 210.572 590.006C210.224 590.29 209.964 590.667 209.794 591.136C209.627 591.602 209.544 592.114 209.544 592.67C209.544 593.231 209.627 593.744 209.794 594.21C209.964 594.676 210.224 595.049 210.572 595.33C210.925 595.61 211.368 595.75 211.902 595.75ZM221.935 588.273V589.636H217.168V588.273H221.935ZM218.446 586.182H220.145V594.438C220.145 594.767 220.194 595.015 220.293 595.182C220.391 595.345 220.518 595.456 220.673 595.517C220.832 595.574 221.005 595.602 221.19 595.602C221.327 595.602 221.446 595.593 221.548 595.574C221.651 595.555 221.73 595.54 221.787 595.528L222.094 596.932C221.995 596.97 221.855 597.008 221.673 597.045C221.491 597.087 221.264 597.11 220.991 597.114C220.545 597.121 220.128 597.042 219.741 596.875C219.355 596.708 219.043 596.451 218.804 596.102C218.565 595.754 218.446 595.316 218.446 594.79V586.182ZM229.122 600.273C228.868 600.273 228.637 600.252 228.429 600.21C228.221 600.172 228.065 600.131 227.963 600.085L228.372 598.693C228.683 598.777 228.959 598.813 229.202 598.801C229.444 598.79 229.658 598.699 229.844 598.528C230.033 598.358 230.2 598.08 230.344 597.693L230.554 597.114L227.361 588.273H229.179L231.389 595.045H231.48L233.69 588.273H235.514L231.918 598.165C231.751 598.619 231.539 599.004 231.281 599.318C231.024 599.636 230.717 599.875 230.361 600.034C230.005 600.193 229.592 600.273 229.122 600.273ZM240.49 597.176C239.672 597.176 238.958 596.989 238.348 596.614C237.738 596.239 237.265 595.714 236.928 595.04C236.59 594.366 236.422 593.578 236.422 592.676C236.422 591.771 236.59 590.979 236.928 590.301C237.265 589.623 237.738 589.097 238.348 588.722C238.958 588.347 239.672 588.159 240.49 588.159C241.308 588.159 242.022 588.347 242.632 588.722C243.242 589.097 243.715 589.623 244.053 590.301C244.39 590.979 244.558 591.771 244.558 592.676C244.558 593.578 244.39 594.366 244.053 595.04C243.715 595.714 243.242 596.239 242.632 596.614C242.022 596.989 241.308 597.176 240.49 597.176ZM240.496 595.75C241.026 595.75 241.465 595.61 241.814 595.33C242.162 595.049 242.42 594.676 242.587 594.21C242.757 593.744 242.842 593.231 242.842 592.67C242.842 592.114 242.757 591.602 242.587 591.136C242.42 590.667 242.162 590.29 241.814 590.006C241.465 589.722 241.026 589.58 240.496 589.58C239.962 589.58 239.518 589.722 239.166 590.006C238.818 590.29 238.558 590.667 238.388 591.136C238.221 591.602 238.138 592.114 238.138 592.67C238.138 593.231 238.221 593.744 238.388 594.21C238.558 594.676 238.818 595.049 239.166 595.33C239.518 595.61 239.962 595.75 240.496 595.75ZM251.983 593.381V588.273H253.688V597H252.017V595.489H251.926C251.725 595.955 251.403 596.343 250.96 596.653C250.521 596.96 249.973 597.114 249.318 597.114C248.758 597.114 248.261 596.991 247.83 596.744C247.402 596.494 247.064 596.125 246.818 595.636C246.576 595.148 246.455 594.544 246.455 593.824V588.273H248.153V593.619C248.153 594.214 248.318 594.687 248.648 595.04C248.977 595.392 249.405 595.568 249.932 595.568C250.25 595.568 250.566 595.489 250.881 595.33C251.199 595.17 251.462 594.93 251.67 594.608C251.883 594.286 251.987 593.877 251.983 593.381ZM255.97 597V588.273H257.612V589.659H257.703C257.862 589.189 258.143 588.82 258.544 588.551C258.949 588.278 259.408 588.142 259.919 588.142C260.025 588.142 260.15 588.146 260.294 588.153C260.442 588.161 260.557 588.17 260.641 588.182V589.807C260.572 589.788 260.451 589.767 260.277 589.744C260.103 589.718 259.929 589.705 259.754 589.705C259.353 589.705 258.995 589.79 258.68 589.96C258.37 590.127 258.124 590.36 257.942 590.659C257.76 590.955 257.669 591.292 257.669 591.67V597H255.97ZM266.345 600.273V588.273H268.004V589.688H268.146C268.245 589.506 268.387 589.295 268.572 589.057C268.758 588.818 269.016 588.61 269.345 588.432C269.675 588.25 270.11 588.159 270.652 588.159C271.357 588.159 271.985 588.337 272.538 588.693C273.091 589.049 273.525 589.562 273.839 590.233C274.158 590.903 274.317 591.71 274.317 592.653C274.317 593.597 274.16 594.405 273.845 595.08C273.531 595.75 273.099 596.267 272.55 596.631C272 596.991 271.374 597.17 270.669 597.17C270.139 597.17 269.705 597.081 269.368 596.903C269.035 596.725 268.773 596.517 268.584 596.278C268.394 596.04 268.249 595.828 268.146 595.642H268.044V600.273H266.345ZM268.01 592.636C268.01 593.25 268.099 593.788 268.277 594.25C268.455 594.712 268.713 595.074 269.05 595.335C269.387 595.593 269.8 595.722 270.288 595.722C270.796 595.722 271.22 595.587 271.561 595.318C271.902 595.045 272.16 594.676 272.334 594.21C272.512 593.744 272.601 593.22 272.601 592.636C272.601 592.061 272.514 591.544 272.339 591.085C272.169 590.627 271.911 590.265 271.567 590C271.226 589.735 270.8 589.602 270.288 589.602C269.796 589.602 269.379 589.729 269.038 589.983C268.701 590.237 268.446 590.591 268.271 591.045C268.097 591.5 268.01 592.03 268.01 592.636ZM278.76 597.193C278.207 597.193 277.707 597.091 277.26 596.886C276.813 596.678 276.459 596.377 276.197 595.983C275.94 595.589 275.811 595.106 275.811 594.534C275.811 594.042 275.906 593.636 276.095 593.318C276.285 593 276.54 592.748 276.862 592.562C277.184 592.377 277.544 592.237 277.942 592.142C278.339 592.047 278.745 591.975 279.158 591.926C279.68 591.866 280.105 591.816 280.43 591.778C280.756 591.737 280.993 591.67 281.141 591.58C281.288 591.489 281.362 591.341 281.362 591.136V591.097C281.362 590.6 281.222 590.216 280.942 589.943C280.665 589.67 280.252 589.534 279.703 589.534C279.131 589.534 278.68 589.661 278.351 589.915C278.025 590.165 277.8 590.443 277.675 590.75L276.078 590.386C276.268 589.856 276.544 589.428 276.908 589.102C277.275 588.773 277.697 588.534 278.175 588.386C278.652 588.235 279.154 588.159 279.68 588.159C280.029 588.159 280.398 588.201 280.788 588.284C281.182 588.364 281.55 588.511 281.891 588.727C282.235 588.943 282.518 589.252 282.737 589.653C282.957 590.051 283.067 590.568 283.067 591.205V597H281.408V595.807H281.339C281.23 596.027 281.065 596.242 280.845 596.455C280.625 596.667 280.343 596.843 279.999 596.983C279.654 597.123 279.241 597.193 278.76 597.193ZM279.129 595.83C279.599 595.83 280 595.737 280.334 595.551C280.671 595.366 280.927 595.123 281.101 594.824C281.279 594.521 281.368 594.197 281.368 593.852V592.727C281.307 592.788 281.19 592.845 281.016 592.898C280.845 592.947 280.65 592.991 280.43 593.028C280.211 593.062 279.997 593.095 279.788 593.125C279.58 593.152 279.406 593.174 279.266 593.193C278.936 593.235 278.635 593.305 278.362 593.403C278.093 593.502 277.877 593.644 277.714 593.83C277.555 594.011 277.476 594.254 277.476 594.557C277.476 594.977 277.631 595.295 277.942 595.511C278.252 595.723 278.648 595.83 279.129 595.83ZM291.869 590.403L290.33 590.676C290.265 590.479 290.163 590.292 290.023 590.114C289.886 589.936 289.701 589.79 289.466 589.676C289.231 589.562 288.938 589.506 288.585 589.506C288.104 589.506 287.703 589.614 287.381 589.83C287.059 590.042 286.898 590.316 286.898 590.653C286.898 590.945 287.006 591.18 287.222 591.358C287.438 591.536 287.786 591.682 288.267 591.795L289.653 592.114C290.456 592.299 291.055 592.585 291.449 592.972C291.843 593.358 292.04 593.86 292.04 594.477C292.04 595 291.888 595.466 291.585 595.875C291.286 596.28 290.867 596.598 290.33 596.83C289.795 597.061 289.176 597.176 288.472 597.176C287.494 597.176 286.697 596.968 286.08 596.551C285.462 596.131 285.083 595.534 284.943 594.761L286.585 594.511C286.688 594.939 286.898 595.263 287.216 595.483C287.534 595.699 287.949 595.807 288.46 595.807C289.017 595.807 289.462 595.691 289.795 595.46C290.129 595.225 290.295 594.939 290.295 594.602C290.295 594.33 290.193 594.1 289.989 593.915C289.788 593.729 289.479 593.589 289.062 593.494L287.585 593.17C286.771 592.985 286.169 592.689 285.778 592.284C285.392 591.879 285.199 591.366 285.199 590.744C285.199 590.229 285.343 589.778 285.631 589.392C285.919 589.006 286.316 588.705 286.824 588.489C287.331 588.269 287.913 588.159 288.568 588.159C289.511 588.159 290.254 588.364 290.795 588.773C291.337 589.178 291.695 589.722 291.869 590.403ZM300.447 590.403L298.908 590.676C298.843 590.479 298.741 590.292 298.601 590.114C298.464 589.936 298.279 589.79 298.044 589.676C297.809 589.562 297.516 589.506 297.163 589.506C296.682 589.506 296.281 589.614 295.959 589.83C295.637 590.042 295.476 590.316 295.476 590.653C295.476 590.945 295.584 591.18 295.8 591.358C296.016 591.536 296.364 591.682 296.845 591.795L298.232 592.114C299.035 592.299 299.633 592.585 300.027 592.972C300.421 593.358 300.618 593.86 300.618 594.477C300.618 595 300.466 595.466 300.163 595.875C299.864 596.28 299.446 596.598 298.908 596.83C298.374 597.061 297.754 597.176 297.05 597.176C296.072 597.176 295.275 596.968 294.658 596.551C294.04 596.131 293.661 595.534 293.521 594.761L295.163 594.511C295.266 594.939 295.476 595.263 295.794 595.483C296.112 595.699 296.527 595.807 297.038 595.807C297.595 595.807 298.04 595.691 298.374 595.46C298.707 595.225 298.874 594.939 298.874 594.602C298.874 594.33 298.771 594.1 298.567 593.915C298.366 593.729 298.057 593.589 297.641 593.494L296.163 593.17C295.349 592.985 294.747 592.689 294.357 592.284C293.97 591.879 293.777 591.366 293.777 590.744C293.777 590.229 293.921 589.778 294.209 589.392C294.497 589.006 294.894 588.705 295.402 588.489C295.91 588.269 296.491 588.159 297.146 588.159C298.089 588.159 298.832 588.364 299.374 588.773C299.915 589.178 300.273 589.722 300.447 590.403ZM304.378 597L301.81 588.273H303.565L305.276 594.682H305.361L307.077 588.273H308.832L310.537 594.653H310.622L312.321 588.273H314.077L311.514 597H309.781L308.009 590.699H307.878L306.105 597H304.378ZM319.099 597.176C318.281 597.176 317.567 596.989 316.957 596.614C316.348 596.239 315.874 595.714 315.537 595.04C315.2 594.366 315.031 593.578 315.031 592.676C315.031 591.771 315.2 590.979 315.537 590.301C315.874 589.623 316.348 589.097 316.957 588.722C317.567 588.347 318.281 588.159 319.099 588.159C319.918 588.159 320.632 588.347 321.241 588.722C321.851 589.097 322.325 589.623 322.662 590.301C322.999 590.979 323.168 591.771 323.168 592.676C323.168 593.578 322.999 594.366 322.662 595.04C322.325 595.714 321.851 596.239 321.241 596.614C320.632 596.989 319.918 597.176 319.099 597.176ZM319.105 595.75C319.635 595.75 320.075 595.61 320.423 595.33C320.772 595.049 321.029 594.676 321.196 594.21C321.366 593.744 321.452 593.231 321.452 592.67C321.452 592.114 321.366 591.602 321.196 591.136C321.029 590.667 320.772 590.29 320.423 590.006C320.075 589.722 319.635 589.58 319.105 589.58C318.571 589.58 318.128 589.722 317.776 590.006C317.427 590.29 317.168 590.667 316.997 591.136C316.83 591.602 316.747 592.114 316.747 592.67C316.747 593.231 316.83 593.744 316.997 594.21C317.168 594.676 317.427 595.049 317.776 595.33C318.128 595.61 318.571 595.75 319.105 595.75ZM325.064 597V588.273H326.706V589.659H326.797C326.956 589.189 327.236 588.82 327.638 588.551C328.043 588.278 328.501 588.142 329.013 588.142C329.119 588.142 329.244 588.146 329.388 588.153C329.536 588.161 329.651 588.17 329.734 588.182V589.807C329.666 589.788 329.545 589.767 329.371 589.744C329.196 589.718 329.022 589.705 328.848 589.705C328.446 589.705 328.089 589.79 327.774 589.96C327.464 590.127 327.217 590.36 327.036 590.659C326.854 590.955 326.763 591.292 326.763 591.67V597H325.064ZM334.159 597.17C333.455 597.17 332.826 596.991 332.273 596.631C331.723 596.267 331.292 595.75 330.977 595.08C330.667 594.405 330.511 593.597 330.511 592.653C330.511 591.71 330.669 590.903 330.983 590.233C331.301 589.562 331.737 589.049 332.29 588.693C332.843 588.337 333.47 588.159 334.17 588.159C334.712 588.159 335.148 588.25 335.477 588.432C335.811 588.61 336.068 588.818 336.25 589.057C336.436 589.295 336.58 589.506 336.682 589.688H336.784V585.364H338.483V597H336.824V595.642H336.682C336.58 595.828 336.432 596.04 336.239 596.278C336.049 596.517 335.788 596.725 335.455 596.903C335.121 597.081 334.689 597.17 334.159 597.17ZM334.534 595.722C335.023 595.722 335.436 595.593 335.773 595.335C336.114 595.074 336.371 594.712 336.545 594.25C336.723 593.788 336.812 593.25 336.812 592.636C336.812 592.03 336.725 591.5 336.551 591.045C336.377 590.591 336.121 590.237 335.784 589.983C335.447 589.729 335.03 589.602 334.534 589.602C334.023 589.602 333.597 589.735 333.256 590C332.915 590.265 332.657 590.627 332.483 591.085C332.313 591.544 332.227 592.061 332.227 592.636C332.227 593.22 332.314 593.744 332.489 594.21C332.663 594.676 332.92 595.045 333.261 595.318C333.606 595.587 334.03 595.722 334.534 595.722ZM342.766 593.653V593.545C342.773 592.841 342.843 592.28 342.976 591.864C343.112 591.447 343.305 591.11 343.555 590.852C343.805 590.595 344.107 590.36 344.459 590.148C344.686 590.004 344.891 589.843 345.072 589.665C345.254 589.487 345.398 589.282 345.504 589.051C345.61 588.82 345.663 588.564 345.663 588.284C345.663 587.947 345.584 587.655 345.425 587.409C345.266 587.163 345.054 586.973 344.788 586.841C344.527 586.705 344.235 586.636 343.913 586.636C343.622 586.636 343.343 586.697 343.078 586.818C342.813 586.939 342.593 587.129 342.419 587.386C342.245 587.64 342.144 587.968 342.118 588.369H340.391C340.417 587.688 340.589 587.112 340.908 586.642C341.226 586.169 341.646 585.811 342.169 585.568C342.696 585.326 343.277 585.205 343.913 585.205C344.61 585.205 345.22 585.335 345.743 585.597C346.266 585.854 346.671 586.216 346.959 586.682C347.25 587.144 347.396 587.684 347.396 588.301C347.396 588.725 347.33 589.108 347.197 589.449C347.065 589.786 346.875 590.087 346.629 590.352C346.387 590.617 346.095 590.852 345.754 591.057C345.432 591.258 345.171 591.466 344.97 591.682C344.773 591.898 344.629 592.153 344.538 592.449C344.447 592.744 344.398 593.11 344.391 593.545V593.653H342.766ZM343.624 597.108C343.313 597.108 343.046 596.998 342.822 596.778C342.599 596.555 342.487 596.286 342.487 595.972C342.487 595.661 342.599 595.396 342.822 595.176C343.046 594.953 343.313 594.841 343.624 594.841C343.93 594.841 344.196 594.953 344.419 595.176C344.646 595.396 344.76 595.661 344.76 595.972C344.76 596.18 344.707 596.371 344.601 596.545C344.499 596.716 344.362 596.852 344.192 596.955C344.021 597.057 343.832 597.108 343.624 597.108Z" fill="#3172BA"/>
<path d="M54.496 245.48H58.112V265.8H64.864V269H54.496V245.48ZM74.9325 269.32C73.4178 269.32 72.0738 268.979 70.9005 268.296C69.7272 267.613 68.8205 266.685 68.1805 265.512C67.5405 264.339 67.2205 263.037 67.2205 261.608C67.2205 260.2 67.5298 258.909 68.1485 257.736C68.7885 256.563 69.6952 255.635 70.8685 254.952C72.0418 254.269 73.3965 253.928 74.9325 253.928C76.4685 253.928 77.8125 254.269 78.9645 254.952C80.1378 255.635 81.0338 256.563 81.6525 257.736C82.2925 258.909 82.6125 260.2 82.6125 261.608C82.6125 263.037 82.2925 264.339 81.6525 265.512C81.0125 266.685 80.1058 267.613 78.9325 268.296C77.7805 268.979 76.4472 269.32 74.9325 269.32ZM75.0285 266.504C76.2658 266.504 77.2365 266.045 77.9405 265.128C78.6658 264.211 79.0285 263.059 79.0285 261.672C79.0285 260.285 78.6445 259.123 77.8765 258.184C77.1085 257.224 76.0952 256.744 74.8365 256.744C73.6205 256.744 72.6392 257.213 71.8925 258.152C71.1672 259.091 70.8045 260.264 70.8045 261.672C70.8045 263.037 71.1992 264.189 71.9885 265.128C72.7778 266.045 73.7912 266.504 75.0285 266.504ZM93.4392 276.68C92.3513 276.68 91.2739 276.531 90.2073 276.232C89.1619 275.933 88.4153 275.656 87.9673 275.4L88.7352 272.2C90.1433 273.117 91.6793 273.576 93.3433 273.576C94.6233 273.576 95.7006 273.267 96.5753 272.648C97.4499 272.029 97.8979 270.824 97.9193 269.032V266.408C97.4713 267.24 96.7459 267.933 95.7433 268.488C94.7406 269.043 93.6313 269.32 92.4153 269.32C91.1353 269.32 89.9619 269.011 88.8953 268.392C87.8286 267.752 86.9859 266.845 86.3673 265.672C85.7486 264.499 85.4393 263.133 85.4393 261.576C85.4393 260.083 85.7273 258.76 86.3033 257.608C86.9006 256.435 87.7433 255.528 88.8313 254.888C89.9193 254.248 91.1886 253.928 92.6393 253.928C93.4926 253.928 94.2926 254.077 95.0393 254.376C95.7859 254.675 96.4153 255.048 96.9273 255.496C97.4606 255.923 97.8126 256.349 97.9833 256.776L98.0473 254.312H101.311V268.904C101.311 271.4 100.671 273.32 99.3913 274.664C98.1113 276.008 96.1273 276.68 93.4392 276.68ZM93.3753 266.408C94.5913 266.408 95.6153 265.992 96.4473 265.16C97.2793 264.307 97.6953 263.197 97.6953 261.832V261.608C97.6953 260.691 97.5033 259.869 97.1193 259.144C96.7353 258.419 96.2126 257.853 95.5513 257.448C94.8899 257.043 94.1646 256.84 93.3753 256.84C92.0099 256.84 90.9539 257.288 90.2073 258.184C89.4606 259.059 89.0873 260.2 89.0873 261.608C89.0873 263.037 89.4499 264.2 90.1753 265.096C90.9219 265.971 91.9886 266.408 93.3753 266.408ZM114.225 245.48H117.809V269H114.225V245.48ZM122.991 254.312H126.383L126.415 257C126.82 256.104 127.46 255.368 128.335 254.792C129.209 254.216 130.233 253.928 131.407 253.928C132.921 253.928 134.084 254.248 134.895 254.888C135.705 255.507 136.249 256.381 136.527 257.512C136.804 258.643 136.943 260.115 136.943 261.928V269H133.487V262.024C133.487 260.168 133.305 258.835 132.943 258.024C132.58 257.192 131.833 256.776 130.703 256.776C130.063 256.776 129.412 256.979 128.751 257.384C128.089 257.768 127.535 258.333 127.087 259.08C126.66 259.827 126.447 260.701 126.447 261.704V269H122.991V254.312Z" fill="#3172BA"/>
<path d="M282.455 252.727C276.647 251.23 273.302 251.675 267.318 252.727C273.65 254.475 277.168 255.472 281.792 258.171C287.54 262.033 292.751 264.536 298.537 266.055C299.215 268.888 301.212 269.283 302.795 269.34L303.268 273C304.297 272.758 304.73 272.494 305.443 271.968C306.626 272.427 307.463 272.64 309.038 273C308.266 270.933 307.679 269.84 306.106 268.12C306.489 267.541 306.648 267.114 306.768 266.055C311.546 264.943 314.228 267.353 321.621 263.99C329.291 261.661 333.752 261.166 341.866 261.08C333.737 259.807 329.146 259.214 320.769 258.828C314.972 259.596 311.455 260.466 304.214 262.019C303.585 261.206 303.151 260.76 301.754 260.048C300.56 259.715 299.948 259.854 299.2 262.019C293.382 258.064 289.815 255.984 282.455 252.727Z" fill="#3172BA"/>
<path d="M298.696 244.161C295.59 244.178 293.978 244.852 291.131 246.188C294.533 246.227 296.427 246.263 299.106 247.014C302.504 248.206 305.449 248.779 308.548 248.776C309.273 250.124 310.324 250.057 311.123 249.874L311.858 251.67C312.339 251.409 312.52 251.217 312.805 250.854C313.458 250.929 313.905 250.925 314.742 250.897C314.074 249.951 313.633 249.474 312.612 248.811C312.725 248.466 312.746 248.228 312.662 247.674C314.899 246.469 316.567 247.334 319.804 244.636C323.321 242.426 325.483 241.577 329.527 240.447C325.291 240.889 322.916 241.203 318.676 242.128C315.883 243.295 314.244 244.207 310.836 245.966C310.411 245.637 310.134 245.469 309.338 245.294C308.696 245.285 308.409 245.438 308.33 246.637C304.884 245.408 302.818 244.829 298.696 244.161Z" fill="#3172BA"/>
<path d="M267.482 234.115C264.865 234.125 263.508 234.694 261.111 235.822C263.978 235.861 265.574 235.894 267.832 236.536C270.697 237.552 273.179 238.043 275.79 238.045C276.403 239.189 277.289 239.134 277.961 238.98L278.583 240.505C278.988 240.284 279.14 240.121 279.38 239.814C279.93 239.879 280.307 239.876 281.012 239.854C280.448 239.05 280.075 238.645 279.214 238.081C279.308 237.789 279.326 237.587 279.254 237.117C281.137 236.099 282.544 236.835 285.267 234.552C288.227 232.683 290.047 231.967 293.452 231.015C289.884 231.383 287.883 231.645 284.313 232.423C281.961 233.408 280.582 234.18 277.713 235.666C277.355 235.386 277.121 235.243 276.45 235.094C275.909 235.085 275.668 235.214 275.603 236.231C272.697 235.183 270.956 234.689 267.482 234.115Z" fill="#3172BA"/>
<mask id="mask0_13_30" style="mask-type:alpha" maskUnits="userSpaceOnUse" x="0" y="636" width="340" height="208">
<rect y="636" width="340" height="208" fill="#D9D9D9"/>
</mask>
<g mask="url(#mask0_13_30)">
<path d="M-48.952 642.277L-17.6342 873.049C-17.6342 873.049 106.334 998.906 213.377 934.522C320.421 870.139 251.69 765.059 193.903 779.114C136.116 793.168 121.384 799.897 101.622 776.291C81.8599 752.685 97.7258 712.203 72.2293 669.248C46.7328 626.293 -15.9655 641.51 -48.952 642.277Z" fill="#3172BA" fill-opacity="0.42"/>
<path d="M-29.9723 725.964L2.38694 859.64C2.38694 859.64 145.24 932.137 271.834 894.4C398.429 856.664 319.889 796.003 251.936 804.372C183.982 812.741 166.6 816.699 143.894 803.088C121.187 789.477 140.531 765.946 111.47 741.139C82.4095 716.331 8.68146 725.394 -29.9723 725.964Z" fill="#3172BA" fill-opacity="0.67"/>
</g>
</g>
<defs>
<clipPath id="clip0_13_30">
<rect width="390" height="844" fill="white"/>
</clipPath>
</defs>
</svg>
