<svg width="300" height="498" viewBox="0 0 317 545" fill="none" xmlns="http://www.w3.org/2000/svg">
<path d="M53.805 91.86L53.85 93.06V99H52.17V87.96H52.38L58.86 95.19L58.8 93.93V87.975H60.48V99H60.255L53.805 91.86ZM65.9694 99.15C65.1494 99.15 64.4644 98.99 63.9144 98.67C63.3644 98.34 62.9594 97.905 62.6994 97.365C62.4394 96.815 62.3094 96.215 62.3094 95.565C62.3094 94.835 62.4594 94.195 62.7594 93.645C63.0694 93.095 63.4944 92.675 64.0344 92.385C64.5744 92.085 65.1844 91.935 65.8644 91.935C66.9244 91.935 67.7094 92.23 68.2194 92.82C68.7394 93.4 68.9994 94.22 68.9994 95.28C68.9994 95.55 68.9844 95.83 68.9544 96.12H64.0044C64.1144 96.73 64.3294 97.17 64.6494 97.44C64.9794 97.71 65.4344 97.845 66.0144 97.845C66.4944 97.845 66.8894 97.805 67.1994 97.725C67.5094 97.645 67.7944 97.535 68.0544 97.395L68.5494 98.55C68.2994 98.71 67.9594 98.85 67.5294 98.97C67.0994 99.09 66.5794 99.15 65.9694 99.15ZM67.4244 94.995C67.4344 94.375 67.2994 93.94 67.0194 93.69C66.7394 93.43 66.3394 93.3 65.8194 93.3C64.7694 93.3 64.1644 93.865 64.0044 94.995H67.4244ZM74.8978 95.175L72.8578 99H72.5728L69.6778 92.115H71.4178L72.9028 96.12L74.8678 92.115H74.9278L76.9078 96.09L78.3928 92.115H80.1028L77.2228 99H76.9378L74.8978 95.175ZM84.9821 87.975H90.1571V89.43H86.6471V92.55H89.3771V94.02H86.6471V99H84.9821V87.975ZM91.7361 87.975H93.3411V99H91.7361V87.975ZM98.8248 99.15C98.1148 99.15 97.4848 98.99 96.9348 98.67C96.3848 98.35 95.9598 97.915 95.6598 97.365C95.3598 96.815 95.2098 96.205 95.2098 95.535C95.2098 94.875 95.3548 94.27 95.6448 93.72C95.9448 93.17 96.3698 92.735 96.9198 92.415C97.4698 92.095 98.1048 91.935 98.8248 91.935C99.5448 91.935 100.175 92.095 100.715 92.415C101.265 92.735 101.685 93.17 101.975 93.72C102.275 94.27 102.425 94.875 102.425 95.535C102.425 96.205 102.275 96.815 101.975 97.365C101.675 97.915 101.25 98.35 100.7 98.67C100.16 98.99 99.5348 99.15 98.8248 99.15ZM98.8698 97.83C99.4498 97.83 99.9048 97.615 100.235 97.185C100.575 96.755 100.745 96.215 100.745 95.565C100.745 94.915 100.565 94.37 100.205 93.93C99.8448 93.48 99.3698 93.255 98.7798 93.255C98.2098 93.255 97.7498 93.475 97.3998 93.915C97.0598 94.355 96.8898 94.905 96.8898 95.565C96.8898 96.205 97.0748 96.745 97.4448 97.185C97.8148 97.615 98.2898 97.83 98.8698 97.83ZM107.365 99.15C106.685 99.15 106.07 99.005 105.52 98.715C104.98 98.415 104.55 97.99 104.23 97.44C103.91 96.88 103.75 96.225 103.75 95.475C103.75 94.765 103.895 94.145 104.185 93.615C104.485 93.075 104.9 92.66 105.43 92.37C105.97 92.08 106.59 91.935 107.29 91.935C107.82 91.935 108.275 92.005 108.655 92.145C109.045 92.275 109.35 92.44 109.57 92.64L108.85 93.945C108.43 93.525 107.955 93.315 107.425 93.315C106.785 93.315 106.295 93.51 105.955 93.9C105.625 94.29 105.46 94.81 105.46 95.46C105.46 96.2 105.63 96.775 105.97 97.185C106.32 97.595 106.805 97.8 107.425 97.8C107.735 97.8 108.035 97.755 108.325 97.665C108.625 97.575 108.855 97.47 109.015 97.35L109.6 98.49C109.38 98.66 109.07 98.815 108.67 98.955C108.28 99.085 107.845 99.15 107.365 99.15ZM117.367 99H115.462L114.067 96.75L113.677 95.985L112.777 96.96V99H111.217V87.975H112.762V94.02L112.732 95.19L115.357 92.115H117.352L114.757 94.995L117.367 99Z" fill="#B6CFED"/>
<path d="M416.742 128.83L386.058 -18.91C386.058 -18.91 221.745 -92.0327 114.451 -61.5797C7.15793 -31.1266 83.0254 38.0466 133.202 37.8888C183.379 37.7309 219.571 25.7046 242.3 41.0636C265.028 56.4227 245.141 82.0212 274.12 109.814C303.099 137.607 377.695 128.828 416.742 128.83Z" fill="#3172BA" fill-opacity="0.67"/>
<path d="M-43.9712 411.776L-21.0861 550.132C-21.0861 550.132 72.4029 625.194 153.766 586.168C235.129 547.141 183.427 484.342 139.579 492.988C95.7321 501.634 84.5423 505.726 69.652 491.635C54.7617 477.543 66.9352 453.194 47.7702 427.513C28.6051 401.832 -18.9686 411.194 -43.9712 411.776Z" fill="#3172BA" fill-opacity="0.42"/>
</svg>
